<mxfile host="app.diagrams.net" agent="Mozilla/5.0 (Windows NT 10.0; Win64; x64) AppleWebKit/537.36 (KHTML, like Gecko) Chrome/135.0.0.0 Safari/537.36 Edg/135.0.0.0" version="26.2.10">
  <diagram name="Page-1" id="0783ab3e-0a74-02c8-0abd-f7b4e66b4bec">
    <mxGraphModel dx="1536" dy="715" grid="1" gridSize="10" guides="1" tooltips="1" connect="1" arrows="1" fold="1" page="1" pageScale="1" pageWidth="850" pageHeight="1100" background="none" math="0" shadow="0">
      <root>
        <mxCell id="0" />
        <mxCell id="1" parent="0" />
        <mxCell id="CQ-Yp57SxoIxxf1xgq9e-1" value="" style="ellipse;whiteSpace=wrap;html=1;rounded=0;shadow=0;comic=0;labelBackgroundColor=none;strokeWidth=1;fillColor=#000000;fontFamily=Verdana;fontSize=12;align=center;" parent="1" vertex="1">
          <mxGeometry x="400" y="40" width="40" height="40" as="geometry" />
        </mxCell>
        <mxCell id="CQ-Yp57SxoIxxf1xgq9e-8" value="OPEN&amp;nbsp;&lt;div&gt;APPLICATION&lt;div&gt;&lt;br&gt;&lt;/div&gt;&lt;/div&gt;" style="rounded=1;whiteSpace=wrap;html=1;" parent="1" vertex="1">
          <mxGeometry x="365" y="160" width="120" height="60" as="geometry" />
        </mxCell>
        <mxCell id="CQ-Yp57SxoIxxf1xgq9e-10" value="" style="endArrow=classic;html=1;rounded=0;fontSize=12;startSize=8;endSize=8;curved=1;" parent="1" edge="1">
          <mxGeometry width="50" height="50" relative="1" as="geometry">
            <mxPoint x="419" y="50" as="sourcePoint" />
            <mxPoint x="419" y="160" as="targetPoint" />
          </mxGeometry>
        </mxCell>
        <mxCell id="CQ-Yp57SxoIxxf1xgq9e-11" value="" style="endArrow=none;html=1;rounded=0;fontSize=12;startSize=8;endSize=8;curved=1;" parent="1" edge="1">
          <mxGeometry width="50" height="50" relative="1" as="geometry">
            <mxPoint x="419" y="220" as="sourcePoint" />
            <mxPoint x="419" y="320" as="targetPoint" />
          </mxGeometry>
        </mxCell>
        <mxCell id="EHXAvCUwwyzWjWZWRu0H-4" style="edgeStyle=orthogonalEdgeStyle;rounded=0;orthogonalLoop=1;jettySize=auto;html=1;entryX=0;entryY=0.75;entryDx=0;entryDy=0;exitX=0;exitY=0.5;exitDx=0;exitDy=0;" edge="1" parent="1" source="CQ-Yp57SxoIxxf1xgq9e-12">
          <mxGeometry relative="1" as="geometry">
            <mxPoint x="360.0000000000002" y="955" as="targetPoint" />
            <mxPoint x="345.0000000000002" y="365" as="sourcePoint" />
            <Array as="points">
              <mxPoint x="350" y="361" />
              <mxPoint x="195" y="361" />
              <mxPoint x="195" y="955" />
            </Array>
          </mxGeometry>
        </mxCell>
        <mxCell id="CQ-Yp57SxoIxxf1xgq9e-12" value="SELECT&lt;div&gt;2D/3D&lt;/div&gt;&lt;div&gt;VIEW&lt;/div&gt;" style="rhombus;whiteSpace=wrap;html=1;" parent="1" vertex="1">
          <mxGeometry x="350" y="310" width="140" height="110" as="geometry" />
        </mxCell>
        <mxCell id="CQ-Yp57SxoIxxf1xgq9e-13" value="VIEW SOLAR&lt;div&gt;SYSTEM&lt;/div&gt;" style="rounded=1;whiteSpace=wrap;html=1;" parent="1" vertex="1">
          <mxGeometry x="360" y="500" width="120" height="60" as="geometry" />
        </mxCell>
        <mxCell id="CQ-Yp57SxoIxxf1xgq9e-16" value="ZOOM&amp;nbsp;&lt;div&gt;IN/OUT&lt;/div&gt;" style="rounded=1;whiteSpace=wrap;html=1;" parent="1" vertex="1">
          <mxGeometry x="360" y="640" width="120" height="60" as="geometry" />
        </mxCell>
        <mxCell id="CQ-Yp57SxoIxxf1xgq9e-17" value="CLICK&amp;nbsp;&amp;nbsp;&lt;div&gt;PLANE&lt;span style=&quot;background-color: transparent; color: light-dark(rgb(0, 0, 0), rgb(255, 255, 255));&quot;&gt;T&lt;/span&gt;&lt;/div&gt;" style="rounded=1;whiteSpace=wrap;html=1;" parent="1" vertex="1">
          <mxGeometry x="360" y="780" width="120" height="60" as="geometry" />
        </mxCell>
        <mxCell id="CQ-Yp57SxoIxxf1xgq9e-18" value="VIEW PLANET&lt;div&gt;DATA&lt;/div&gt;" style="rounded=1;whiteSpace=wrap;html=1;" parent="1" vertex="1">
          <mxGeometry x="360" y="920" width="125" height="60" as="geometry" />
        </mxCell>
        <mxCell id="CQ-Yp57SxoIxxf1xgq9e-20" value="" style="shape=mxgraph.bpmn.shape;html=1;verticalLabelPosition=bottom;labelBackgroundColor=#ffffff;verticalAlign=top;perimeter=ellipsePerimeter;outline=end;symbol=terminate;rounded=0;shadow=0;comic=0;strokeWidth=1;fontFamily=Verdana;fontSize=12;align=center;" parent="1" vertex="1">
          <mxGeometry x="400" y="1040" width="40" height="40" as="geometry" />
        </mxCell>
        <mxCell id="CQ-Yp57SxoIxxf1xgq9e-24" value="" style="endArrow=classic;html=1;rounded=0;fontSize=12;startSize=8;endSize=8;curved=1;entryX=0.5;entryY=0;entryDx=0;entryDy=0;" parent="1" source="CQ-Yp57SxoIxxf1xgq9e-12" target="CQ-Yp57SxoIxxf1xgq9e-13" edge="1">
          <mxGeometry width="50" height="50" relative="1" as="geometry">
            <mxPoint x="395" y="490" as="sourcePoint" />
            <mxPoint x="445" y="440" as="targetPoint" />
          </mxGeometry>
        </mxCell>
        <mxCell id="CQ-Yp57SxoIxxf1xgq9e-25" value="" style="endArrow=classic;html=1;rounded=0;fontSize=12;startSize=8;endSize=8;curved=1;entryX=0.5;entryY=0;entryDx=0;entryDy=0;" parent="1" edge="1">
          <mxGeometry width="50" height="50" relative="1" as="geometry">
            <mxPoint x="419" y="560" as="sourcePoint" />
            <mxPoint x="419" y="640" as="targetPoint" />
            <Array as="points">
              <mxPoint x="419" y="610" />
            </Array>
          </mxGeometry>
        </mxCell>
        <mxCell id="CQ-Yp57SxoIxxf1xgq9e-26" value="" style="endArrow=classic;html=1;rounded=0;fontSize=12;startSize=8;endSize=8;curved=1;entryX=0.5;entryY=0;entryDx=0;entryDy=0;" parent="1" edge="1">
          <mxGeometry width="50" height="50" relative="1" as="geometry">
            <mxPoint x="419" y="700" as="sourcePoint" />
            <mxPoint x="419" y="780" as="targetPoint" />
          </mxGeometry>
        </mxCell>
        <mxCell id="CQ-Yp57SxoIxxf1xgq9e-27" value="" style="endArrow=classic;html=1;rounded=0;fontSize=12;startSize=8;endSize=8;curved=1;entryX=0.5;entryY=0;entryDx=0;entryDy=0;" parent="1" edge="1">
          <mxGeometry width="50" height="50" relative="1" as="geometry">
            <mxPoint x="419" y="840" as="sourcePoint" />
            <mxPoint x="419" y="920" as="targetPoint" />
          </mxGeometry>
        </mxCell>
        <mxCell id="CQ-Yp57SxoIxxf1xgq9e-28" style="edgeStyle=none;curved=1;rounded=0;orthogonalLoop=1;jettySize=auto;html=1;exitX=0.145;exitY=0.855;exitDx=0;exitDy=0;exitPerimeter=0;entryX=0.855;entryY=0.855;entryDx=0;entryDy=0;entryPerimeter=0;fontSize=12;startSize=8;endSize=8;" parent="1" source="CQ-Yp57SxoIxxf1xgq9e-20" target="CQ-Yp57SxoIxxf1xgq9e-20" edge="1">
          <mxGeometry relative="1" as="geometry" />
        </mxCell>
        <mxCell id="CQ-Yp57SxoIxxf1xgq9e-29" value="" style="endArrow=classic;html=1;rounded=0;fontSize=12;startSize=8;endSize=8;curved=1;entryX=0.5;entryY=0;entryDx=0;entryDy=0;" parent="1" edge="1">
          <mxGeometry width="50" height="50" relative="1" as="geometry">
            <mxPoint x="421.5" y="980" as="sourcePoint" />
            <mxPoint x="421.5" y="1040" as="targetPoint" />
          </mxGeometry>
        </mxCell>
        <mxCell id="CQ-Yp57SxoIxxf1xgq9e-34" value="in 2D" style="text;html=1;align=center;verticalAlign=middle;resizable=0;points=[];autosize=1;strokeColor=none;fillColor=none;fontSize=16;" parent="1" vertex="1">
          <mxGeometry x="268" y="320" width="60" height="30" as="geometry" />
        </mxCell>
        <mxCell id="EHXAvCUwwyzWjWZWRu0H-6" value="&lt;font style=&quot;font-size: 18px;&quot;&gt;in 3D&lt;/font&gt;" style="text;html=1;align=center;verticalAlign=middle;resizable=0;points=[];autosize=1;strokeColor=none;fillColor=none;" vertex="1" parent="1">
          <mxGeometry x="475" y="400" width="70" height="40" as="geometry" />
        </mxCell>
      </root>
    </mxGraphModel>
  </diagram>
</mxfile>
